# xmcd
#
# Track frame offsets:
#	150
#	18925
#	51869
#	75255
#	106109
#
# Disc length: 1717 seconds
#
# Revision: 1
# Processed by: cddbd v1.5.1PL0 Copyright (c) Steve Scherf et al.
# Submitted via: EasyCDDAExtractor 7.0.5.3
#
DISCID=2906b305
DTITLE=Various Artist - JBB Plays SRV And Jimi
DYEAR=1998
DGENRE=Blues
TTITLE0=JBB Plays SRV And Jimi  - Pride And Joy
TTITLE1=JBB Plays SRV And Jimi  - Texas Flood
TTITLE2=JBB Plays SRV And Jimi  - Cold Shot
TTITLE3=JBB Plays SRV And Jimi  - Voodoo Chile
TTITLE4=Jake´s Blues Band - Little Wing
EXTD=
EXTT0=
EXTT1=
EXTT2=
EXTT3=
EXTT4=
PLAYORDER=
